<mxfile host="Electron" agent="Mozilla/5.0 (X11; Linux x86_64) AppleWebKit/537.36 (KHTML, like Gecko) draw.io/26.1.1 Chrome/132.0.6834.210 Electron/34.3.3 Safari/537.36" version="26.1.1">
  <diagram name="PÃ¡gina-1" id="tbhhrolYnf2YLyF_AGn1">
    <mxGraphModel dx="1434" dy="870" grid="1" gridSize="10" guides="1" tooltips="1" connect="1" arrows="1" fold="1" page="1" pageScale="1" pageWidth="827" pageHeight="1169" math="0" shadow="0">
      <root>
        <mxCell id="0" />
        <mxCell id="1" parent="0" />
        <mxCell id="gUQwB867zqCJYkILIy9S-1" value="EXERC019 - SUM TWO 3x3 MATRICES AND DISPLAY RESULT" style="text;html=1;align=left;verticalAlign=middle;whiteSpace=wrap;rounded=0;fontStyle=1" parent="1" vertex="1">
          <mxGeometry x="40" y="40" width="760" height="30" as="geometry" />
        </mxCell>
        <mxCell id="gUQwB867zqCJYkILIy9S-21" style="edgeStyle=orthogonalEdgeStyle;rounded=0;orthogonalLoop=1;jettySize=auto;html=1;exitX=0.5;exitY=1;exitDx=0;exitDy=0;exitPerimeter=0;entryX=0.5;entryY=0;entryDx=0;entryDy=0;" parent="1" source="gUQwB867zqCJYkILIy9S-3" target="gUQwB867zqCJYkILIy9S-4" edge="1">
          <mxGeometry relative="1" as="geometry" />
        </mxCell>
        <mxCell id="gUQwB867zqCJYkILIy9S-3" value="Start" style="strokeWidth=2;html=1;shape=mxgraph.flowchart.terminator;whiteSpace=wrap;" parent="1" vertex="1">
          <mxGeometry x="81.94" y="84" width="100" height="60" as="geometry" />
        </mxCell>
        <mxCell id="3jQmmOMbjJLLry7wghpk-65" style="edgeStyle=orthogonalEdgeStyle;rounded=0;orthogonalLoop=1;jettySize=auto;html=1;exitX=0.5;exitY=1;exitDx=0;exitDy=0;entryX=0.5;entryY=0;entryDx=0;entryDy=0;" parent="1" source="gUQwB867zqCJYkILIy9S-4" target="3jQmmOMbjJLLry7wghpk-3" edge="1">
          <mxGeometry relative="1" as="geometry" />
        </mxCell>
        <mxCell id="gUQwB867zqCJYkILIy9S-4" value="&lt;div&gt;&lt;br&gt;&lt;/div&gt;&lt;div&gt;a[3] [3]&lt;/div&gt;&lt;div&gt;b[3] [3]&lt;/div&gt;&lt;div&gt;soma&lt;/div&gt;" style="shape=internalStorage;whiteSpace=wrap;html=1;dx=15;dy=15;rounded=1;arcSize=8;strokeWidth=2;" parent="1" vertex="1">
          <mxGeometry x="79.44" y="174" width="105" height="66" as="geometry" />
        </mxCell>
        <mxCell id="0eGiHp5goSOmYRr4eiXb-60" value="Stop" style="strokeWidth=2;html=1;shape=mxgraph.flowchart.terminator;whiteSpace=wrap;" parent="1" vertex="1">
          <mxGeometry x="280.9700000000001" y="600" width="100" height="60" as="geometry" />
        </mxCell>
        <mxCell id="3jQmmOMbjJLLry7wghpk-58" style="edgeStyle=orthogonalEdgeStyle;rounded=0;orthogonalLoop=1;jettySize=auto;html=1;exitX=0.5;exitY=1;exitDx=0;exitDy=0;entryX=0.5;entryY=0;entryDx=0;entryDy=0;" parent="1" source="3jQmmOMbjJLLry7wghpk-3" target="3jQmmOMbjJLLry7wghpk-35" edge="1">
          <mxGeometry relative="1" as="geometry" />
        </mxCell>
        <mxCell id="3jQmmOMbjJLLry7wghpk-3" value="i 1, 3, 1" style="shape=hexagon;perimeter=hexagonPerimeter2;whiteSpace=wrap;html=1;fixedSize=1;" parent="1" vertex="1">
          <mxGeometry x="69.35" y="265" width="120" height="40" as="geometry" />
        </mxCell>
        <mxCell id="3jQmmOMbjJLLry7wghpk-34" style="edgeStyle=orthogonalEdgeStyle;rounded=0;orthogonalLoop=1;jettySize=auto;html=1;exitX=0.5;exitY=1;exitDx=0;exitDy=0;entryX=0.5;entryY=0;entryDx=0;entryDy=0;" parent="1" source="3jQmmOMbjJLLry7wghpk-35" target="3jQmmOMbjJLLry7wghpk-37" edge="1">
          <mxGeometry relative="1" as="geometry" />
        </mxCell>
        <mxCell id="3jQmmOMbjJLLry7wghpk-35" value="j 1, 3, 1" style="shape=hexagon;perimeter=hexagonPerimeter2;whiteSpace=wrap;html=1;fixedSize=1;" parent="1" vertex="1">
          <mxGeometry x="69.35" y="335" width="120" height="40" as="geometry" />
        </mxCell>
        <mxCell id="3jQmmOMbjJLLry7wghpk-59" style="edgeStyle=orthogonalEdgeStyle;rounded=0;orthogonalLoop=1;jettySize=auto;html=1;exitX=0;exitY=0.75;exitDx=0;exitDy=0;entryX=0;entryY=0.5;entryDx=0;entryDy=0;" parent="1" source="3jQmmOMbjJLLry7wghpk-37" target="3jQmmOMbjJLLry7wghpk-35" edge="1">
          <mxGeometry relative="1" as="geometry" />
        </mxCell>
        <mxCell id="3jQmmOMbjJLLry7wghpk-37" value="&lt;div&gt;&lt;br&gt;&lt;/div&gt;a[i, j]" style="html=1;strokeWidth=2;shape=manualInput;whiteSpace=wrap;rounded=1;size=26;arcSize=11;" parent="1" vertex="1">
          <mxGeometry x="78.91" y="400" width="100" height="60" as="geometry" />
        </mxCell>
        <mxCell id="3jQmmOMbjJLLry7wghpk-62" style="edgeStyle=orthogonalEdgeStyle;rounded=0;orthogonalLoop=1;jettySize=auto;html=1;exitX=0.5;exitY=1;exitDx=0;exitDy=0;exitPerimeter=0;entryX=0;entryY=0.5;entryDx=0;entryDy=0;" parent="1" source="3jQmmOMbjJLLry7wghpk-60" target="3jQmmOMbjJLLry7wghpk-3" edge="1">
          <mxGeometry relative="1" as="geometry">
            <Array as="points">
              <mxPoint x="51.91" y="505" />
              <mxPoint x="51.91" y="285" />
            </Array>
          </mxGeometry>
        </mxCell>
        <mxCell id="3jQmmOMbjJLLry7wghpk-60" value="" style="verticalLabelPosition=bottom;verticalAlign=top;html=1;shape=mxgraph.flowchart.on-page_reference;direction=south;" parent="1" vertex="1">
          <mxGeometry x="108.91" y="485" width="40" height="40" as="geometry" />
        </mxCell>
        <mxCell id="3jQmmOMbjJLLry7wghpk-61" style="edgeStyle=orthogonalEdgeStyle;rounded=0;orthogonalLoop=1;jettySize=auto;html=1;exitX=1;exitY=0.5;exitDx=0;exitDy=0;entryX=0.5;entryY=0;entryDx=0;entryDy=0;entryPerimeter=0;" parent="1" source="3jQmmOMbjJLLry7wghpk-35" target="3jQmmOMbjJLLry7wghpk-60" edge="1">
          <mxGeometry relative="1" as="geometry">
            <Array as="points">
              <mxPoint x="201.91" y="355" />
              <mxPoint x="201.91" y="505" />
            </Array>
          </mxGeometry>
        </mxCell>
        <mxCell id="3jQmmOMbjJLLry7wghpk-78" style="edgeStyle=orthogonalEdgeStyle;rounded=0;orthogonalLoop=1;jettySize=auto;html=1;exitX=1;exitY=0.5;exitDx=0;exitDy=0;exitPerimeter=0;entryX=0.5;entryY=0;entryDx=0;entryDy=0;" parent="1" source="3jQmmOMbjJLLry7wghpk-63" target="3jQmmOMbjJLLry7wghpk-67" edge="1">
          <mxGeometry relative="1" as="geometry" />
        </mxCell>
        <mxCell id="3jQmmOMbjJLLry7wghpk-63" value="" style="verticalLabelPosition=bottom;verticalAlign=top;html=1;shape=mxgraph.flowchart.on-page_reference;direction=south;" parent="1" vertex="1">
          <mxGeometry x="109.35" y="545" width="40" height="40" as="geometry" />
        </mxCell>
        <mxCell id="3jQmmOMbjJLLry7wghpk-64" style="edgeStyle=orthogonalEdgeStyle;rounded=0;orthogonalLoop=1;jettySize=auto;html=1;exitX=1;exitY=0.5;exitDx=0;exitDy=0;entryX=0.5;entryY=0;entryDx=0;entryDy=0;entryPerimeter=0;" parent="1" source="3jQmmOMbjJLLry7wghpk-3" target="3jQmmOMbjJLLry7wghpk-63" edge="1">
          <mxGeometry relative="1" as="geometry">
            <Array as="points">
              <mxPoint x="211.91" y="285" />
              <mxPoint x="211.91" y="565" />
            </Array>
          </mxGeometry>
        </mxCell>
        <mxCell id="3jQmmOMbjJLLry7wghpk-66" style="edgeStyle=orthogonalEdgeStyle;rounded=0;orthogonalLoop=1;jettySize=auto;html=1;exitX=0.5;exitY=1;exitDx=0;exitDy=0;entryX=0.5;entryY=0;entryDx=0;entryDy=0;" parent="1" source="3jQmmOMbjJLLry7wghpk-67" target="3jQmmOMbjJLLry7wghpk-69" edge="1">
          <mxGeometry relative="1" as="geometry" />
        </mxCell>
        <mxCell id="3jQmmOMbjJLLry7wghpk-67" value="i 1, 3, 1" style="shape=hexagon;perimeter=hexagonPerimeter2;whiteSpace=wrap;html=1;fixedSize=1;" parent="1" vertex="1">
          <mxGeometry x="69.33999999999999" y="610" width="120" height="40" as="geometry" />
        </mxCell>
        <mxCell id="3jQmmOMbjJLLry7wghpk-68" style="edgeStyle=orthogonalEdgeStyle;rounded=0;orthogonalLoop=1;jettySize=auto;html=1;exitX=0.5;exitY=1;exitDx=0;exitDy=0;entryX=0.5;entryY=0;entryDx=0;entryDy=0;" parent="1" source="3jQmmOMbjJLLry7wghpk-69" target="3jQmmOMbjJLLry7wghpk-71" edge="1">
          <mxGeometry relative="1" as="geometry" />
        </mxCell>
        <mxCell id="3jQmmOMbjJLLry7wghpk-69" value="j 1, 3, 1" style="shape=hexagon;perimeter=hexagonPerimeter2;whiteSpace=wrap;html=1;fixedSize=1;" parent="1" vertex="1">
          <mxGeometry x="69.33999999999999" y="680" width="120" height="40" as="geometry" />
        </mxCell>
        <mxCell id="3jQmmOMbjJLLry7wghpk-70" style="edgeStyle=orthogonalEdgeStyle;rounded=0;orthogonalLoop=1;jettySize=auto;html=1;exitX=0;exitY=0.75;exitDx=0;exitDy=0;entryX=0;entryY=0.5;entryDx=0;entryDy=0;" parent="1" source="3jQmmOMbjJLLry7wghpk-71" target="3jQmmOMbjJLLry7wghpk-69" edge="1">
          <mxGeometry relative="1" as="geometry" />
        </mxCell>
        <mxCell id="3jQmmOMbjJLLry7wghpk-71" value="&lt;div&gt;&lt;br&gt;&lt;/div&gt;b[i, j]" style="html=1;strokeWidth=2;shape=manualInput;whiteSpace=wrap;rounded=1;size=26;arcSize=11;" parent="1" vertex="1">
          <mxGeometry x="78.89999999999999" y="745" width="100" height="60" as="geometry" />
        </mxCell>
        <mxCell id="3jQmmOMbjJLLry7wghpk-72" style="edgeStyle=orthogonalEdgeStyle;rounded=0;orthogonalLoop=1;jettySize=auto;html=1;exitX=0.5;exitY=1;exitDx=0;exitDy=0;exitPerimeter=0;entryX=0;entryY=0.5;entryDx=0;entryDy=0;" parent="1" source="3jQmmOMbjJLLry7wghpk-73" target="3jQmmOMbjJLLry7wghpk-67" edge="1">
          <mxGeometry relative="1" as="geometry">
            <Array as="points">
              <mxPoint x="51.9" y="850" />
              <mxPoint x="51.9" y="630" />
            </Array>
          </mxGeometry>
        </mxCell>
        <mxCell id="3jQmmOMbjJLLry7wghpk-73" value="" style="verticalLabelPosition=bottom;verticalAlign=top;html=1;shape=mxgraph.flowchart.on-page_reference;direction=south;" parent="1" vertex="1">
          <mxGeometry x="108.89999999999999" y="830" width="40" height="40" as="geometry" />
        </mxCell>
        <mxCell id="3jQmmOMbjJLLry7wghpk-74" style="edgeStyle=orthogonalEdgeStyle;rounded=0;orthogonalLoop=1;jettySize=auto;html=1;exitX=1;exitY=0.5;exitDx=0;exitDy=0;entryX=0.5;entryY=0;entryDx=0;entryDy=0;entryPerimeter=0;" parent="1" source="3jQmmOMbjJLLry7wghpk-69" target="3jQmmOMbjJLLry7wghpk-73" edge="1">
          <mxGeometry relative="1" as="geometry">
            <Array as="points">
              <mxPoint x="201.9" y="700" />
              <mxPoint x="201.9" y="850" />
            </Array>
          </mxGeometry>
        </mxCell>
        <mxCell id="3jQmmOMbjJLLry7wghpk-88" style="edgeStyle=orthogonalEdgeStyle;rounded=0;orthogonalLoop=1;jettySize=auto;html=1;exitX=1;exitY=0.5;exitDx=0;exitDy=0;exitPerimeter=0;entryX=0.5;entryY=0;entryDx=0;entryDy=0;" parent="1" source="3jQmmOMbjJLLry7wghpk-75" target="3jQmmOMbjJLLry7wghpk-80" edge="1">
          <mxGeometry relative="1" as="geometry" />
        </mxCell>
        <mxCell id="3jQmmOMbjJLLry7wghpk-75" value="" style="verticalLabelPosition=bottom;verticalAlign=top;html=1;shape=mxgraph.flowchart.on-page_reference;direction=south;" parent="1" vertex="1">
          <mxGeometry x="310.53" y="134" width="40" height="40" as="geometry" />
        </mxCell>
        <mxCell id="3jQmmOMbjJLLry7wghpk-76" style="edgeStyle=orthogonalEdgeStyle;rounded=0;orthogonalLoop=1;jettySize=auto;html=1;exitX=1;exitY=0.5;exitDx=0;exitDy=0;entryX=0.5;entryY=1;entryDx=0;entryDy=0;entryPerimeter=0;" parent="1" source="3jQmmOMbjJLLry7wghpk-67" target="3jQmmOMbjJLLry7wghpk-75" edge="1">
          <mxGeometry relative="1" as="geometry">
            <Array as="points">
              <mxPoint x="230" y="630" />
              <mxPoint x="230" y="154" />
            </Array>
          </mxGeometry>
        </mxCell>
        <mxCell id="3jQmmOMbjJLLry7wghpk-79" style="edgeStyle=orthogonalEdgeStyle;rounded=0;orthogonalLoop=1;jettySize=auto;html=1;exitX=0.5;exitY=1;exitDx=0;exitDy=0;entryX=0.5;entryY=0;entryDx=0;entryDy=0;" parent="1" source="3jQmmOMbjJLLry7wghpk-80" target="3jQmmOMbjJLLry7wghpk-82" edge="1">
          <mxGeometry relative="1" as="geometry" />
        </mxCell>
        <mxCell id="3jQmmOMbjJLLry7wghpk-80" value="i 1, 3, 1" style="shape=hexagon;perimeter=hexagonPerimeter2;whiteSpace=wrap;html=1;fixedSize=1;" parent="1" vertex="1">
          <mxGeometry x="270.96999999999997" y="200" width="120" height="40" as="geometry" />
        </mxCell>
        <mxCell id="3jQmmOMbjJLLry7wghpk-92" style="edgeStyle=orthogonalEdgeStyle;rounded=0;orthogonalLoop=1;jettySize=auto;html=1;exitX=0.5;exitY=1;exitDx=0;exitDy=0;entryX=0.5;entryY=0;entryDx=0;entryDy=0;" parent="1" source="3jQmmOMbjJLLry7wghpk-82" target="3jQmmOMbjJLLry7wghpk-89" edge="1">
          <mxGeometry relative="1" as="geometry" />
        </mxCell>
        <mxCell id="3jQmmOMbjJLLry7wghpk-82" value="j 1, 3, 1" style="shape=hexagon;perimeter=hexagonPerimeter2;whiteSpace=wrap;html=1;fixedSize=1;" parent="1" vertex="1">
          <mxGeometry x="270.96999999999997" y="270" width="120" height="40" as="geometry" />
        </mxCell>
        <mxCell id="3jQmmOMbjJLLry7wghpk-95" style="edgeStyle=orthogonalEdgeStyle;rounded=0;orthogonalLoop=1;jettySize=auto;html=1;exitX=0.5;exitY=1;exitDx=0;exitDy=0;exitPerimeter=0;entryX=0;entryY=0.5;entryDx=0;entryDy=0;" parent="1" source="3jQmmOMbjJLLry7wghpk-86" target="3jQmmOMbjJLLry7wghpk-80" edge="1">
          <mxGeometry relative="1" as="geometry" />
        </mxCell>
        <mxCell id="3jQmmOMbjJLLry7wghpk-86" value="" style="verticalLabelPosition=bottom;verticalAlign=top;html=1;shape=mxgraph.flowchart.on-page_reference;direction=south;" parent="1" vertex="1">
          <mxGeometry x="310.96999999999997" y="480" width="40" height="40" as="geometry" />
        </mxCell>
        <mxCell id="3jQmmOMbjJLLry7wghpk-89" value="soma =&amp;nbsp;&lt;div&gt;a[i][j] + b[i][j]&lt;/div&gt;" style="rounded=1;whiteSpace=wrap;html=1;absoluteArcSize=1;arcSize=14;strokeWidth=2;" parent="1" vertex="1">
          <mxGeometry x="280.96999999999997" y="335" width="100" height="40" as="geometry" />
        </mxCell>
        <mxCell id="3jQmmOMbjJLLry7wghpk-93" style="edgeStyle=orthogonalEdgeStyle;rounded=0;orthogonalLoop=1;jettySize=auto;html=1;exitX=0;exitY=0.5;exitDx=0;exitDy=0;exitPerimeter=0;entryX=0;entryY=0.5;entryDx=0;entryDy=0;" parent="1" source="3jQmmOMbjJLLry7wghpk-90" target="3jQmmOMbjJLLry7wghpk-82" edge="1">
          <mxGeometry relative="1" as="geometry" />
        </mxCell>
        <mxCell id="3jQmmOMbjJLLry7wghpk-90" value="soma" style="strokeWidth=2;html=1;shape=mxgraph.flowchart.display;whiteSpace=wrap;" parent="1" vertex="1">
          <mxGeometry x="277.56" y="400" width="100" height="60" as="geometry" />
        </mxCell>
        <mxCell id="3jQmmOMbjJLLry7wghpk-91" style="edgeStyle=orthogonalEdgeStyle;rounded=0;orthogonalLoop=1;jettySize=auto;html=1;exitX=0.5;exitY=1;exitDx=0;exitDy=0;entryX=0.548;entryY=-0.005;entryDx=0;entryDy=0;entryPerimeter=0;" parent="1" source="3jQmmOMbjJLLry7wghpk-89" target="3jQmmOMbjJLLry7wghpk-90" edge="1">
          <mxGeometry relative="1" as="geometry" />
        </mxCell>
        <mxCell id="3jQmmOMbjJLLry7wghpk-94" style="edgeStyle=orthogonalEdgeStyle;rounded=0;orthogonalLoop=1;jettySize=auto;html=1;exitX=1;exitY=0.5;exitDx=0;exitDy=0;entryX=0.5;entryY=0;entryDx=0;entryDy=0;entryPerimeter=0;" parent="1" source="3jQmmOMbjJLLry7wghpk-82" target="3jQmmOMbjJLLry7wghpk-86" edge="1">
          <mxGeometry relative="1" as="geometry">
            <Array as="points">
              <mxPoint x="403.56" y="290" />
              <mxPoint x="403.56" y="500" />
            </Array>
          </mxGeometry>
        </mxCell>
        <mxCell id="3jQmmOMbjJLLry7wghpk-96" value="" style="verticalLabelPosition=bottom;verticalAlign=top;html=1;shape=mxgraph.flowchart.on-page_reference;direction=south;" parent="1" vertex="1">
          <mxGeometry x="310.53" y="540" width="40" height="40" as="geometry" />
        </mxCell>
        <mxCell id="3jQmmOMbjJLLry7wghpk-97" style="edgeStyle=orthogonalEdgeStyle;rounded=0;orthogonalLoop=1;jettySize=auto;html=1;exitX=1;exitY=0.5;exitDx=0;exitDy=0;entryX=0.5;entryY=0;entryDx=0;entryDy=0;entryPerimeter=0;" parent="1" source="3jQmmOMbjJLLry7wghpk-80" target="3jQmmOMbjJLLry7wghpk-96" edge="1">
          <mxGeometry relative="1" as="geometry">
            <Array as="points">
              <mxPoint x="413.56" y="220" />
              <mxPoint x="413.56" y="560" />
            </Array>
          </mxGeometry>
        </mxCell>
        <mxCell id="3jQmmOMbjJLLry7wghpk-98" style="edgeStyle=orthogonalEdgeStyle;rounded=0;orthogonalLoop=1;jettySize=auto;html=1;exitX=1;exitY=0.5;exitDx=0;exitDy=0;exitPerimeter=0;entryX=0.5;entryY=0;entryDx=0;entryDy=0;entryPerimeter=0;" parent="1" source="3jQmmOMbjJLLry7wghpk-96" target="0eGiHp5goSOmYRr4eiXb-60" edge="1">
          <mxGeometry relative="1" as="geometry" />
        </mxCell>
      </root>
    </mxGraphModel>
  </diagram>
</mxfile>
